<?xml version="1.0" encoding="UTF-8"?>
<svg id="Capa_2" data-name="Capa 2" xmlns="http://www.w3.org/2000/svg" viewBox="0 0 571.19 571.19">
  <defs>
    <style>
      .cls-1 {
        fill: #fff;
      }
    </style>
  </defs>
  <g id="Capa_4" data-name="Capa 4">
    <g>
      <path class="cls-1" d="m315.52,270.19L465.01,63.4C415.98,23.76,353.57,0,285.6,0c-52.13,0-100.98,13.97-143.05,38.37l97.67,135.1-5.24,6.93-35.78,47.34-23.11-31.94-85.77-118.57C34.74,129.32,0,203.4,0,285.6c0,64.55,21.42,124.09,57.54,171.92L255.35,195.79l60.17,74.4Z"/>
      <path class="cls-1" d="m333.44,399.88l34.7-47.96,21.45,28.38,88.13,116.61c57.42-52.24,93.47-127.57,93.47-211.31,0-65.97-22.38-126.71-59.95-175.06l-198.49,274.38-60.7-82.52-148.36,203.38c49.4,40.86,112.78,65.42,181.9,65.42,50.06,0,97.09-12.89,138-35.52l-94.59-129.67,4.43-6.13Z"/>
    </g>
  </g>
</svg>