<?xml version="1.0" encoding="UTF-8"?>
<svg id="Capa_2" data-name="Capa 2" xmlns="http://www.w3.org/2000/svg" viewBox="0 0 1564.85 196.99">
  <defs>
    <style>
      .cls-1 {
        fill: #fff;
      }
    </style>
  </defs>
  <g id="Capa_1-2" data-name="Capa 1">
    <g>
      <g>
        <path class="cls-1" d="m68.06,195.33V19.37H0V1.66h156.6v17.71h-68.06v175.96h-20.47Z"/>
        <path class="cls-1" d="m189.24,195.33V1.66h72.49c16.41,0,30.52,2.63,42.33,7.89,11.8,5.26,20.89,12.82,27.25,22.69,6.36,9.87,9.54,21.81,9.54,35.83s-3.18,25.41-9.54,35.28c-6.36,9.87-15.45,17.43-27.25,22.69-11.81,5.26-25.92,7.89-42.33,7.89h-61.15l9.13-9.41v70.83h-20.47Zm20.47-69.17l-9.13-9.68h60.59c19.37,0,34.07-4.24,44.13-12.73,10.05-8.48,15.08-20.38,15.08-35.69s-5.03-27.48-15.08-35.97c-10.05-8.48-24.76-12.73-44.13-12.73h-60.59l9.13-9.68v116.48Zm111.78,69.17l-49.8-70.27h22.13l50.08,70.27h-22.41Z"/>
        <path class="cls-1" d="m358.29,195.33L446.82,1.66h20.19l88.54,193.67h-21.58L452.63,13.56h8.3l-81.34,181.77h-21.3Zm34.86-51.74l6.09-16.6h112.61l6.09,16.6h-124.78Z"/>
        <path class="cls-1" d="m587.65,195.33V1.66h78.85c20.65,0,38.78,4.11,54.37,12.31,15.58,8.21,27.71,19.6,36.38,34.17,8.67,14.57,13,31.36,13,50.35s-4.34,35.79-13,50.35c-8.67,14.57-20.8,25.96-36.38,34.17-15.59,8.21-33.71,12.31-54.37,12.31h-78.85Zm20.47-17.71h57.27c17.15,0,32.05-3.36,44.68-10.1,12.63-6.73,22.45-16.05,29.47-27.94,7.01-11.9,10.51-25.59,10.51-41.09s-3.51-29.42-10.51-41.22c-7.01-11.8-16.83-21.07-29.47-27.81-12.64-6.73-27.53-10.1-44.68-10.1h-57.27v158.26Z"/>
        <path class="cls-1" d="m900.84,196.99c-14.57,0-28.08-2.44-40.53-7.33-12.45-4.88-23.24-11.8-32.37-20.75-9.13-8.94-16.23-19.37-21.3-31.26-5.07-11.9-7.61-24.94-7.61-39.15s2.54-27.25,7.61-39.15c5.07-11.9,12.18-22.32,21.3-31.26,9.13-8.94,19.87-15.86,32.23-20.75,12.36-4.88,25.91-7.33,40.67-7.33s28.04,2.45,40.39,7.33c12.36,4.89,23.1,11.76,32.24,20.61,9.13,8.85,16.23,19.28,21.3,31.26,5.07,11.99,7.61,25.09,7.61,39.29s-2.54,27.3-7.61,39.29c-5.08,11.99-12.18,22.41-21.3,31.26-9.13,8.85-19.88,15.73-32.24,20.61-12.36,4.89-25.82,7.33-40.39,7.33Zm0-18.26c11.62,0,22.36-1.98,32.23-5.95,9.87-3.96,18.44-9.59,25.73-16.88,7.28-7.28,12.96-15.77,17.01-25.45,4.05-9.68,6.09-20.34,6.09-31.96s-2.03-22.27-6.09-31.96c-4.06-9.68-9.73-18.17-17.01-25.45-7.29-7.28-15.87-12.91-25.73-16.88-9.87-3.96-20.61-5.95-32.23-5.95s-22.41,1.98-32.37,5.95c-9.96,3.97-18.63,9.59-26.01,16.88-7.38,7.29-13.1,15.77-17.15,25.45-4.06,9.68-6.09,20.34-6.09,31.96s2.03,22.04,6.09,31.82c4.05,9.78,9.77,18.31,17.15,25.59,7.38,7.29,16.05,12.91,26.01,16.88,9.96,3.97,20.75,5.95,32.37,5.95Z"/>
        <path class="cls-1" d="m1298.14,196.99c-24.72,0-44.18-7.1-58.38-21.3-14.2-14.2-21.3-35.23-21.3-63.08V1.66h20.48v110.12c0,22.87,5.16,39.75,15.49,50.63,10.33,10.88,24.9,16.32,43.71,16.32s33.66-5.44,43.99-16.32c10.33-10.88,15.5-27.76,15.5-50.63V1.66h19.92v110.95c0,27.85-7.06,48.88-21.16,63.08-14.11,14.21-33.53,21.3-58.24,21.3Z"/>
        <path class="cls-1" d="m1492.64,196.99c-14.39,0-28.18-2.35-41.36-7.06-13.19-4.7-23.38-10.74-30.57-18.12l8.02-15.77c6.82,6.64,16,12.22,27.53,16.74,11.53,4.52,23.66,6.78,36.38,6.78s22.09-1.52,29.74-4.57c7.65-3.04,13.28-7.15,16.88-12.31,3.6-5.16,5.4-10.88,5.4-17.15,0-7.56-2.17-13.65-6.5-18.26-4.34-4.61-10.01-8.25-17.01-10.93-7.01-2.67-14.76-5.02-23.24-7.06-8.49-2.03-16.98-4.19-25.45-6.5-8.49-2.3-16.28-5.39-23.38-9.27-7.1-3.87-12.83-8.99-17.15-15.35-4.34-6.36-6.5-14.71-6.5-25.04,0-9.59,2.53-18.4,7.61-26.42,5.07-8.02,12.86-14.48,23.38-19.37,10.51-4.88,23.97-7.33,40.39-7.33,10.88,0,21.67,1.52,32.37,4.56,10.7,3.04,19.92,7.24,27.67,12.59l-6.92,16.32c-8.3-5.53-17.11-9.59-26.42-12.17-9.32-2.58-18.31-3.87-26.97-3.87-11.62,0-21.21,1.57-28.78,4.7-7.56,3.14-13.14,7.33-16.74,12.59-3.6,5.26-5.39,11.21-5.39,17.85,0,7.57,2.16,13.65,6.5,18.26,4.33,4.61,10.05,8.21,17.15,10.79,7.1,2.58,14.89,4.89,23.38,6.92,8.48,2.03,16.92,4.25,25.31,6.64,8.39,2.4,16.14,5.49,23.24,9.27,7.1,3.78,12.82,8.81,17.15,15.08,4.33,6.27,6.5,14.48,6.5,24.62,0,9.41-2.58,18.12-7.75,26.15-5.16,8.02-13.05,14.48-23.65,19.37-10.61,4.89-24.21,7.33-40.81,7.33Z"/>
      </g>
      <g>
        <polygon class="cls-1" points="1079.94 83.36 1089.41 70.83 1090.79 69 1059.76 26.08 1042.11 1.66 1020.83 1.66 1038.5 26.08 1073.82 74.91 1079.94 83.36"/>
        <polygon class="cls-1" points="1130.32 123.74 1124.65 116.23 1115.47 128.92 1114.29 130.54 1144.95 172.57 1162.76 196.99 1185.69 196.99 1167.23 172.57 1130.32 123.74"/>
        <polygon class="cls-1" points="1093.93 103.12 1109.99 124.96 1199.19 1.66 1177.91 1.66 1110.72 94.6 1094.8 74.91 1002.53 196.99 1025.45 196.99 1093.93 103.12"/>
      </g>
    </g>
  </g>
</svg>